HIERARCHY
ROOT Hips
{
	OFFSET 0.000000 121.760803 0.000000
	CHANNELS 6 Xposition Yposition Zposition Xrotation Yrotation Zrotation 
	JOINT Spine
	{
		OFFSET 0.072000 7.257294 -0.789700
		CHANNELS 3 Xrotation Yrotation Zrotation
		JOINT Spine1
		{
			OFFSET 0.000000 12.508769 -0.658067
			CHANNELS 3 Xrotation Yrotation Zrotation
			JOINT Spine1_split
			{
				OFFSET 0.000000 12.508769 -0.658067
				CHANNELS 3 Xrotation Yrotation Zrotation
				JOINT Spine2
				{
					OFFSET 0.000000 12.508769 -0.658067
					CHANNELS 3 Xrotation Yrotation Zrotation
					JOINT Neck
					{
						OFFSET 0.000000 14.033295 7.520400
						CHANNELS 3 Xrotation Yrotation Zrotation
						JOINT Head
						{
							OFFSET 0.000000 8.198502 5.703100
							CHANNELS 3 Xrotation Yrotation Zrotation
							JOINT HeadTop_End
							{
								OFFSET 0.000000 17.760803 13.332701
								CHANNELS 3 Xrotation Yrotation Zrotation
								End Site
								{
									OFFSET 0.000000 0.000000 0.000000
								}
							}
						}
					}
					JOINT LeftShoulder
					{
						OFFSET 6.292450 5.785301 -0.669000
						CHANNELS 3 Xrotation Yrotation Zrotation
						JOINT LeftShoulder_split
						{
							OFFSET 6.292450 5.785301 -0.669000
							CHANNELS 3 Xrotation Yrotation Zrotation
							JOINT LeftArm
							{
								OFFSET 13.907140 -6.093903 1.965100
								CHANNELS 3 Xrotation Yrotation Zrotation
								JOINT LeftForeArm
								{
									OFFSET 34.140198 0.000000 0.000000
									CHANNELS 3 Xrotation Yrotation Zrotation
									JOINT LeftHand
									{
										OFFSET 40.960209 0.000000 0.000000
										CHANNELS 3 Xrotation Yrotation Zrotation
										JOINT LeftHandThumb1
										{
											OFFSET 10.006996 -7.170425 9.573125
											CHANNELS 3 Xrotation Yrotation Zrotation
											JOINT LeftHandThumb2
											{
												OFFSET 1.835007 -1.059448 1.059443
												CHANNELS 3 Xrotation Yrotation Zrotation
												JOINT LeftHandThumb3
												{
													OFFSET 2.112267 -1.219513 1.219518
													CHANNELS 3 Xrotation Yrotation Zrotation
													JOINT LeftHandThumb4
													{
														OFFSET 4.843811 -2.796570 2.796576
														CHANNELS 3 Xrotation Yrotation Zrotation
														End Site
														{
															OFFSET 0.000000 0.000000 0.000000
														}
													}
												}
											}
										}
										JOINT LeftHandIndex1
										{
											OFFSET 18.389847 -0.922348 4.596882
											CHANNELS 3 Xrotation Yrotation Zrotation
											JOINT LeftHandIndex2
											{
												OFFSET 4.711273 0.000000 0.000000
												CHANNELS 3 Xrotation Yrotation Zrotation
												JOINT LeftHandIndex3
												{
													OFFSET 2.886131 0.000000 0.000000
													CHANNELS 3 Xrotation Yrotation Zrotation
													JOINT LeftHandIndex4
													{
														OFFSET 6.145912 0.000000 0.000000
														CHANNELS 3 Xrotation Yrotation Zrotation
														End Site
														{
															OFFSET 0.000000 0.000000 0.000000
														}
													}
												}
											}
										}
										JOINT LeftHandMiddle1
										{
											OFFSET 18.013008 0.000000 0.000000
											CHANNELS 3 Xrotation Yrotation Zrotation
											JOINT LeftHandMiddle2
											{
												OFFSET 4.946693 0.000000 0.000000
												CHANNELS 3 Xrotation Yrotation Zrotation
												JOINT LeftHandMiddle3
												{
													OFFSET 3.342232 0.000000 0.000000
													CHANNELS 3 Xrotation Yrotation Zrotation
													JOINT LeftHandMiddle4
													{
														OFFSET 4.461754 0.000000 0.000000
														CHANNELS 3 Xrotation Yrotation Zrotation
														End Site
														{
															OFFSET 0.000000 0.000000 0.000000
														}
													}
												}
											}
										}
										JOINT LeftHandRing1
										{
											OFFSET 15.849892 -0.102921 -4.126150
											CHANNELS 3 Xrotation Yrotation Zrotation
											JOINT LeftHandRing2
											{
												OFFSET 3.527054 0.000000 0.000000
												CHANNELS 3 Xrotation Yrotation Zrotation
												JOINT LeftHandRing3
												{
													OFFSET 2.961098 0.000000 0.000000
													CHANNELS 3 Xrotation Yrotation Zrotation
													JOINT LeftHandRing4
													{
														OFFSET 4.927200 0.000000 0.000000
														CHANNELS 3 Xrotation Yrotation Zrotation
														End Site
														{
															OFFSET 0.000000 0.000000 0.000000
														}
													}
												}
											}
										}
										JOINT LeftHandPinky1
										{
											OFFSET 12.791824 -0.832031 -6.799156
											CHANNELS 3 Xrotation Yrotation Zrotation
											JOINT LeftHandPinky2
											{
												OFFSET 3.327133 0.000000 0.000000
												CHANNELS 3 Xrotation Yrotation Zrotation
												JOINT LeftHandPinky3
												{
													OFFSET 3.014900 0.000000 0.000000
													CHANNELS 3 Xrotation Yrotation Zrotation
													JOINT LeftHandPinky4
													{
														OFFSET 5.847786 0.000000 0.000000
														CHANNELS 3 Xrotation Yrotation Zrotation
														End Site
														{
															OFFSET 0.000000 0.000000 0.000000
														}
													}
												}
											}
										}
									}
								}
							}
						}
					}
					JOINT RightShoulder
					{
						OFFSET -6.292450 5.785301 -0.669000
						CHANNELS 3 Xrotation Yrotation Zrotation
						JOINT RightShoulder_split
						{
							OFFSET -6.292450 5.785301 -0.669000
							CHANNELS 3 Xrotation Yrotation Zrotation
							JOINT RightArm
							{
								OFFSET -13.907140 -6.093903 1.965100
								CHANNELS 3 Xrotation Yrotation Zrotation
								JOINT RightForeArm
								{
									OFFSET -34.140198 0.000000 0.000000
									CHANNELS 3 Xrotation Yrotation Zrotation
									JOINT RightHand
									{
										OFFSET -40.960209 0.000000 0.000000
										CHANNELS 3 Xrotation Yrotation Zrotation
										JOINT RightHandThumb1
										{
											OFFSET -10.007050 -7.170456 9.573117
											CHANNELS 3 Xrotation Yrotation Zrotation
											JOINT RightHandThumb2
											{
												OFFSET -1.835007 -1.059448 1.059443
												CHANNELS 3 Xrotation Yrotation Zrotation
												JOINT RightHandThumb3
												{
													OFFSET -2.112267 -1.219513 1.219518
													CHANNELS 3 Xrotation Yrotation Zrotation
													JOINT RightHandThumb4
													{
														OFFSET -4.843834 -2.796585 2.796590
														CHANNELS 3 Xrotation Yrotation Zrotation
														End Site
														{
															OFFSET 0.000000 0.000000 0.000000
														}
													}
												}
											}
										}
										JOINT RightHandIndex1
										{
											OFFSET -18.389870 -0.922424 4.596786
											CHANNELS 3 Xrotation Yrotation Zrotation
											JOINT RightHandIndex2
											{
												OFFSET -4.711273 0.000000 0.000000
												CHANNELS 3 Xrotation Yrotation Zrotation
												JOINT RightHandIndex3
												{
													OFFSET -2.886131 0.000000 0.000000
													CHANNELS 3 Xrotation Yrotation Zrotation
													JOINT RightHandIndex4
													{
														OFFSET -6.145920 0.000000 0.000000
														CHANNELS 3 Xrotation Yrotation Zrotation
														End Site
														{
															OFFSET 0.000000 0.000000 0.000000
														}
													}
												}
											}
										}
										JOINT RightHandMiddle1
										{
											OFFSET -18.013008 0.000000 0.000000
											CHANNELS 3 Xrotation Yrotation Zrotation
											JOINT RightHandMiddle2
											{
												OFFSET -4.946693 0.000000 0.000000
												CHANNELS 3 Xrotation Yrotation Zrotation
												JOINT RightHandMiddle3
												{
													OFFSET -3.342232 0.000000 0.000000
													CHANNELS 3 Xrotation Yrotation Zrotation
													JOINT RightHandMiddle4
													{
														OFFSET -4.461754 0.000000 0.000000
														CHANNELS 3 Xrotation Yrotation Zrotation
														End Site
														{
															OFFSET 0.000000 0.000000 0.000000
														}
													}
												}
											}
										}
										JOINT RightHandRing1
										{
											OFFSET -15.849876 -0.102936 -4.126237
											CHANNELS 3 Xrotation Yrotation Zrotation
											JOINT RightHandRing2
											{
												OFFSET -3.527054 0.000000 0.000000
												CHANNELS 3 Xrotation Yrotation Zrotation
												JOINT RightHandRing3
												{
													OFFSET -2.961098 0.000000 0.000000
													CHANNELS 3 Xrotation Yrotation Zrotation
													JOINT RightHandRing4
													{
														OFFSET -4.927200 0.000000 0.000000
														CHANNELS 3 Xrotation Yrotation Zrotation
														End Site
														{
															OFFSET 0.000000 0.000000 0.000000
														}
													}
												}
											}
										}
										JOINT RightHandPinky1
										{
											OFFSET -12.791786 -0.832077 -6.799222
											CHANNELS 3 Xrotation Yrotation Zrotation
											JOINT RightHandPinky2
											{
												OFFSET -3.327133 0.000000 0.000000
												CHANNELS 3 Xrotation Yrotation Zrotation
												JOINT RightHandPinky3
												{
													OFFSET -3.014900 0.000000 0.000000
													CHANNELS 3 Xrotation Yrotation Zrotation
													JOINT RightHandPinky4
													{
														OFFSET -5.847786 0.000000 0.000000
														CHANNELS 3 Xrotation Yrotation Zrotation
														End Site
														{
															OFFSET 0.000000 0.000000 0.000000
														}
													}
												}
											}
										}
									}
								}
							}
						}
					}
				}
			}
		}
	}
	JOINT LeftUpLeg
	{
		OFFSET 13.026900 -6.336304 -1.092800
		CHANNELS 3 Xrotation Yrotation Zrotation
		JOINT LeftLeg
		{
			OFFSET 0.524474 -46.096886 9.782700
			CHANNELS 3 Xrotation Yrotation Zrotation
			JOINT LeftFoot
			{
				OFFSET -0.524474 -53.427422 -12.948200
				CHANNELS 3 Xrotation Yrotation Zrotation
				JOINT LeftToeBase
				{
					OFFSET 0.192200 -14.009700 16.364100
					CHANNELS 3 Xrotation Yrotation Zrotation
					JOINT LeftToe_End
					{
						OFFSET -1.784700 -0.561700 9.474800
						CHANNELS 3 Xrotation Yrotation Zrotation
						End Site
						{
							OFFSET 0.000000 0.000000 0.000000
						}
					}
				}
			}
		}
	}
	JOINT RightUpLeg
	{
		OFFSET -12.883000 -6.336304 -1.092800
		CHANNELS 3 Xrotation Yrotation Zrotation
		JOINT RightLeg
		{
			OFFSET -0.524587 -46.096825 9.782800
			CHANNELS 3 Xrotation Yrotation Zrotation
			JOINT RightFoot
			{
				OFFSET 0.524587 -53.427383 -12.948300
				CHANNELS 3 Xrotation Yrotation Zrotation
				JOINT RightToeBase
				{
					OFFSET -0.192200 -14.009700 16.364100
					CHANNELS 3 Xrotation Yrotation Zrotation
					JOINT RightToe_End
					{
						OFFSET 1.784700 -0.561700 9.474800
						CHANNELS 3 Xrotation Yrotation Zrotation
						End Site
						{
							OFFSET 0.000000 0.000000 0.000000
						}
					}
				}
			}
		}
	}
}
MOTION
Frames: 4
Frame Time: 0.016667
240.100342 31.469177 -44.562126 53.592448 205.034096 229.079654 12.034630 2.317616 3.251199 24.200999 5.707154 2.256767 0.000000 0.000000 0.000000 24.200986 5.707166 2.256766 56.768110 -4.708990 -18.365636 -27.541952 -9.260044 20.113295 -0.000002 -0.000001 -0.000000 0.826489 4.176647 27.061192 0.000000 0.000000 0.000000 -21.500734 -16.600713 -7.566947 0.248536 -108.744760 0.234036 -1.960206 7.066425 19.245289 -3.269886 -2.950320 2.445898 6.363635 5.687391 -6.261548 0.000009 -0.000017 -0.000008 0.000000 -0.000000 -0.000000 -2.181513 1.448992 -9.293717 0.033632 0.552083 -14.681522 -0.000003 -0.000006 -0.000005 -0.000001 0.000000 -0.000002 -0.369298 0.913324 -21.544746 -0.502608 -1.800280 -26.483420 0.000006 -0.000005 -0.000009 -0.000000 0.000002 -0.000001 -0.931028 3.368092 -28.899203 -0.351981 -2.121504 -21.850805 -0.000002 0.000007 0.000005 -0.000001 0.000001 0.000000 0.523309 5.278449 -26.022940 -0.846846 -5.236647 -31.985434 -0.000008 0.000003 -0.000001 0.000001 -0.000001 -0.000003 2.759755 8.250637 -10.588921 0.000000 0.000000 0.000000 -57.649051 -5.834129 42.145378 0.058580 119.763337 -0.066501 30.555083 10.082321 -24.848686 6.507449 5.943989 -8.205813 0.308323 -2.673185 -2.026425 0.000002 0.000005 0.000002 -0.000001 -0.000001 0.000000 -3.218594 0.338186 -13.313594 0.023724 0.208820 -0.000076 -0.000002 -0.000001 -0.000001 -0.000001 0.000001 0.000000 -2.741312 -2.097340 -13.344339 0.039709 -0.113986 0.011391 0.000001 0.000002 -0.000002 -0.000001 0.000001 0.000001 -2.221654 -6.757292 -8.023619 -0.013512 0.271968 -0.000040 0.000001 0.000000 -0.000013 0.000002 -0.000000 -0.000001 2.103477 -7.884686 4.939294 -0.291347 5.357223 14.254942 0.000001 0.000003 -0.000011 -0.000002 0.000001 0.000001 -75.711827 11.272668 4.050241 115.507269 -2.595641 -3.343578 -6.035890 -3.757993 -5.095479 2.062826 1.449618 -1.075911 -0.000002 0.000000 0.000001 -107.603155 -8.429709 2.958539 83.728509 -2.058685 1.888304 -5.054624 2.272632 15.774983 -0.012199 -0.109721 0.262103 0.000003 -0.000001 -0.000001 
243.516647 28.164825 -45.129444 54.008297 199.629163 233.809697 12.046784 2.190185 3.474731 24.205463 6.078913 2.810422 0.000000 0.000000 0.000000 24.205466 6.078910 2.810433 57.480352 -3.925609 -18.447419 -25.082688 -8.467479 21.826291 -0.000000 -0.000001 0.000002 0.899511 3.368693 24.482583 0.000000 0.000000 0.000000 -14.606305 -19.867040 -3.868308 0.354763 -104.424365 0.337933 -4.669650 6.592307 21.857633 -3.133894 -3.128525 2.072200 6.459739 5.436985 -6.660197 0.000011 -0.000017 -0.000006 0.000001 0.000000 0.000000 -2.376738 1.613018 -8.894070 0.030290 0.532993 -14.400253 -0.000001 -0.000005 -0.000006 -0.000001 0.000001 0.000002 -0.361504 0.964852 -21.923714 -0.516446 -1.835415 -26.743251 0.000008 -0.000006 -0.000007 0.000001 0.000003 0.000001 -0.959562 3.242983 -28.884238 -0.358834 -2.130786 -22.188223 -0.000005 0.000008 0.000007 0.000001 -0.000002 0.000003 0.422604 4.920204 -26.484277 -0.811155 -5.130996 -31.831885 -0.000006 0.000006 0.000002 0.000000 -0.000001 -0.000000 3.074224 7.560857 -12.803214 0.000000 0.000000 0.000000 -40.315468 -8.927980 48.040115 0.085551 116.790675 -0.090089 40.428600 7.346901 -27.686416 9.080928 6.991074 -6.854930 -0.534582 -0.975006 -1.909484 -0.000001 0.000005 0.000004 0.000000 0.000002 0.000001 -4.050271 -0.157097 -12.989649 0.010736 0.010869 -0.000193 0.000002 -0.000001 0.000004 0.000000 0.000000 -0.000001 -3.380167 -2.013611 -16.151143 0.066078 -0.021681 0.003136 0.000003 0.000002 -0.000002 0.000001 0.000001 0.000002 -4.069083 -5.491771 -3.840700 0.001735 0.401752 -0.000059 0.000002 0.000002 -0.000009 0.000002 0.000000 -0.000001 0.468021 -4.535779 10.858789 -0.591294 6.307205 20.037581 -0.000001 0.000002 -0.000013 -0.000002 0.000000 0.000000 -69.769836 10.026106 2.656287 115.441644 -2.517964 -3.323416 -7.185308 -5.167802 -7.472936 2.940283 1.444441 -1.088187 -0.000001 0.000000 -0.000001 -103.354238 -9.378337 2.479251 84.092476 -1.915720 1.925819 -6.170610 1.875340 14.551016 -0.012194 -0.109718 0.262118 -0.000002 -0.000002 -0.000004 
246.846527 25.223854 -45.708790 53.879298 194.080863 238.791309 11.992980 2.072741 3.661076 24.076794 6.263975 3.298516 0.000000 0.000000 0.000000 24.076779 6.263982 3.298496 58.211838 -3.060416 -17.835292 -23.111417 -7.490910 22.712635 0.000000 -0.000001 -0.000001 1.106687 2.229524 21.865693 0.000000 0.000000 0.000000 -8.044696 -21.912744 0.331395 0.504040 -100.515557 0.483484 -7.464038 4.378063 27.133089 -3.030160 -3.261364 1.789479 6.532175 5.246524 -6.961250 0.000010 -0.000017 -0.000008 0.000002 -0.000001 0.000002 -2.566434 1.768159 -8.498493 0.026917 0.514264 -14.103395 -0.000001 -0.000006 -0.000003 0.000002 -0.000001 0.000006 -0.349278 1.015425 -22.255704 -0.529870 -1.867091 -26.970423 0.000006 -0.000006 -0.000009 0.000000 -0.000001 0.000002 -1.000502 3.115054 -28.867695 -0.363711 -2.137673 -22.483369 -0.000004 0.000010 0.000004 0.000000 0.000003 -0.000002 0.306751 4.583561 -26.815821 -0.771147 -5.026552 -31.633649 -0.000005 0.000005 0.000001 -0.000000 0.000002 0.000000 3.006496 6.979987 -13.209515 0.000000 0.000000 0.000000 -24.883235 -9.196746 51.059332 0.144215 108.653488 -0.132354 49.791611 0.108405 -33.736466 11.232868 7.962250 -5.436342 -0.991351 -0.153153 -1.907225 0.000004 0.000006 0.000004 -0.000001 0.000001 0.000002 -4.856078 -0.741982 -11.696871 -0.000013 -0.423355 0.042091 -0.000001 0.000003 0.000003 -0.000000 -0.000001 0.000002 -4.002449 -1.861613 -17.305961 0.077283 0.012097 0.000106 0.000001 -0.000002 -0.000001 -0.000002 -0.000001 0.000001 -6.095268 -4.440943 1.307399 -0.008302 0.878750 3.650585 -0.000000 0.000001 -0.000013 0.000001 -0.000003 -0.000001 -1.644611 -1.402752 16.800529 -0.986746 7.222196 25.836230 0.000001 0.000005 -0.000016 0.000001 0.000004 -0.000001 -64.803435 8.824578 1.451625 115.251929 -2.585299 -3.340283 -7.583904 -5.388755 -8.774667 3.049598 1.003069 -0.719904 -0.000000 -0.000003 -0.000004 -99.408014 -9.531534 1.595973 84.113882 -1.771352 1.958802 -7.240207 1.540087 13.410975 -0.012209 -0.109710 0.262095 -0.000005 -0.000001 -0.000003 
250.251678 22.356430 -46.324104 53.303776 188.103724 244.074051 11.815881 1.965887 3.795072 23.705766 6.193823 3.640057 0.000000 0.000000 0.000000 23.705763 6.193826 3.640059 58.660267 -2.363946 -16.804094 -22.201523 -6.647941 22.500069 0.000001 0.000000 -0.000002 1.311802 1.043496 19.573575 0.000000 0.000000 0.000000 -2.184740 -21.315414 2.321630 0.553332 -99.110382 0.528898 -7.420673 0.340500 36.334796 -1.617109 -3.443775 1.781903 6.670566 5.016638 -7.429587 0.000011 -0.000018 -0.000007 -0.000001 -0.000001 0.000003 -2.740586 1.901289 -8.112380 0.023660 0.496718 -13.783371 0.000000 -0.000007 -0.000002 0.000000 -0.000000 0.000002 -0.335102 1.060531 -22.530885 -0.542019 -1.893757 -27.158427 0.000005 -0.000005 -0.000011 -0.000002 -0.000001 -0.000001 -1.054357 2.979428 -28.849162 -0.366848 -2.142717 -22.727716 -0.000004 0.000008 0.000001 0.000003 0.000001 -0.000002 0.166339 4.266768 -27.072764 -0.732804 -4.937663 -31.470923 -0.000006 0.000007 0.000001 -0.000002 -0.000002 0.000000 2.058697 6.641523 -9.781842 0.000000 0.000000 0.000000 -17.790259 -3.547546 48.458700 0.544849 93.753567 -0.515839 44.210899 -8.940497 -42.468952 12.926580 8.813796 -4.083792 -1.071285 -0.171213 -2.021257 -0.000000 0.000008 0.000001 -0.000001 0.000004 -0.000002 -5.540302 -1.397984 -9.917175 0.014392 -0.663877 4.500995 -0.000000 -0.000002 0.000002 0.000001 -0.000001 -0.000000 -4.569646 -1.700306 -16.210593 0.061366 -0.036731 0.004478 0.000001 -0.000002 -0.000005 -0.000000 -0.000002 -0.000001 -8.208138 -3.920783 6.976356 -0.122032 1.728502 11.591774 0.000001 -0.000004 -0.000012 0.000000 0.000002 0.000000 -4.173460 1.073064 22.333081 -1.431513 8.024071 31.180927 0.000005 0.000002 -0.000009 0.000001 -0.000002 0.000001 -61.649779 7.973281 0.535051 114.702755 -2.828142 -3.402406 -6.264421 -3.581072 -7.949793 0.167578 0.148668 -0.044673 -0.000002 -0.000001 -0.000002 -96.540571 -8.538049 0.222296 83.776846 -1.643862 1.984303 -7.962010 1.609334 12.719181 -0.012197 -0.109728 0.262086 -0.000003 -0.000003 -0.000002 
